<svg width="302" height="344" viewBox="0 0 302 344" fill="none" xmlns="http://www.w3.org/2000/svg">
<path d="M2.125 202.875L122.75 129.375L3.5 2.5C1.5 4 0.125 6.375 0.125 9.25V192.25C0.125 195.875 0.874998 199.5 2.125 202.875Z" fill="#FCA65C"/>
<path d="M298.625 2.5L179.375 129.375L302 204.875V9.125C302 6.375 300.625 4 298.625 2.5Z" fill="#FCA65C"/>
<path d="M3.5 2.5L118.625 125L94.25 146.875L54.75 171.125L3.5 2.5Z" fill="#F5934A"/>
<path d="M298.625 2.5L183.5 125L207.875 146.875L247.375 171.125L298.625 2.375V2.5Z" fill="#F5934A"/>
<path d="M9.625 0.625013C7.375 0.375013 5.25 1.12501 3.5 2.50001L75.625 129.375H226.5L298.625 2.50001C296.375 0.625008 293.25 -0.124988 290.25 1.12501L151.125 53.875L11.875 1.12501C11.125 0.875012 10.375 0.625013 9.625 0.625013Z" fill="#FEB87E"/>
<path d="M226.5 129.375L151 54L75.625 129.375L2.125 202.875C3.625 206.875 5.875 210.625 9 213.75L68.75 273.5L84.125 288.875L148.625 308.875L217.875 288.875L301.875 204.875L226.375 129.375H226.5Z" fill="#FDC99C"/>
<path d="M84.125 288.875L130.875 335.625C142 346.75 160 346.75 171.125 335.625L217.875 288.875H84.125Z" fill="#9DACB9"/>
<path d="M151 53.875L61.5 104.75L75.5 129.375L150.875 53.875H151Z" fill="#FCA65C"/>
<path d="M151 53.875L240.5 104.75L226.5 129.375L151.125 53.875H151Z" fill="#FCA65C"/>
</svg>
